# 3ds Max Wavefront OBJ Exporter v0.97b - (c)2007 guruware
# File Created: 01.12.2013 23:01:32

mtllib crystal-2.mtl

#
# object crystal_2
#

v  -0.0000 0.2000 0.0000
v  0.0025 0.2000 -0.0047
v  -0.0025 0.2000 -0.0047
v  -0.0028 0.2000 -0.0045
v  -0.0053 0.2000 -0.0002
v  -0.0053 0.2000 0.0002
v  -0.0028 0.2000 0.0045
v  -0.0025 0.2000 0.0047
v  0.0025 0.2000 0.0047
v  0.0028 0.2000 0.0045
v  0.0053 0.2000 0.0002
v  0.0053 0.2000 -0.0002
v  0.0028 0.2000 -0.0045
v  0.1592 0.9000 -0.2984
v  -0.1592 0.9000 -0.2984
v  -0.1788 0.9000 -0.2871
v  -0.3381 0.9000 -0.0113
v  -0.3381 0.9000 0.0113
v  -0.1788 0.9000 0.2871
v  -0.1592 0.9000 0.2984
v  0.1592 0.9000 0.2984
v  0.1788 0.9000 0.2871
v  0.3381 0.9000 0.0113
v  0.3381 0.9000 -0.0113
v  0.1788 0.9000 -0.2871
v  0.0025 1.6000 -0.0047
v  -0.0025 1.6000 -0.0047
v  -0.0028 1.6000 -0.0045
v  -0.0053 1.6000 -0.0002
v  -0.0053 1.6000 0.0002
v  -0.0028 1.6000 0.0045
v  -0.0025 1.6000 0.0047
v  0.0025 1.6000 0.0047
v  0.0028 1.6000 0.0045
v  0.0053 1.6000 0.0002
v  0.0053 1.6000 -0.0002
v  0.0028 1.6000 -0.0045
v  -0.0000 1.6000 0.0000
# 38 vertices

vn 0.0000 -1.0000 -0.0000
vn 0.0000 -1.0000 -0.0000
vn 0.0000 -1.0000 -0.0000
vn 0.0000 -1.0000 -0.0000
vn 0.0000 -1.0000 -0.0000
vn 0.0000 -1.0000 -0.0000
vn 0.0000 -1.0000 -0.0000
vn 0.0000 -1.0000 -0.0000
vn 0.0000 -1.0000 -0.0000
vn 0.0000 -1.0000 -0.0000
vn 0.0000 -1.0000 -0.0000
vn 0.0000 -1.0000 -0.0000
vn 0.0000 -1.0000 -0.0000
vn 0.0000 -1.0000 -0.0000
vn 0.0000 -1.0000 -0.0000
vn 0.0000 -1.0000 -0.0000
vn 0.0000 -1.0000 -0.0000
vn 0.0000 -1.0000 -0.0000
vn 0.0000 -1.0000 -0.0000
vn 0.0000 -1.0000 -0.0000
vn 0.0000 -1.0000 -0.0000
vn 0.0000 -1.0000 -0.0000
vn 0.0000 -1.0000 -0.0000
vn 0.0000 -1.0000 -0.0000
vn -0.0000 -0.3870 -0.9221
vn -0.0000 -0.3870 -0.9221
vn -0.0000 -0.3870 -0.9221
vn -0.0000 -0.3870 -0.9221
vn -0.4516 -0.4294 -0.7821
vn -0.4516 -0.4294 -0.7821
vn -0.4516 -0.4294 -0.7821
vn -0.4516 -0.4294 -0.7821
vn -0.7985 -0.3870 -0.4610
vn -0.7985 -0.3870 -0.4610
vn -0.7985 -0.3870 -0.4610
vn -0.7985 -0.3870 -0.4610
vn -0.9031 -0.4294 -0.0000
vn -0.9031 -0.4294 -0.0000
vn -0.9031 -0.4294 -0.0000
vn -0.9031 -0.4294 -0.0000
vn -0.7985 -0.3870 0.4610
vn -0.7985 -0.3870 0.4610
vn -0.7985 -0.3870 0.4610
vn -0.7985 -0.3870 0.4610
vn -0.4516 -0.4294 0.7821
vn -0.4516 -0.4294 0.7821
vn -0.4516 -0.4294 0.7821
vn -0.4516 -0.4294 0.7821
vn 0.0000 -0.3870 0.9221
vn 0.0000 -0.3870 0.9221
vn 0.0000 -0.3870 0.9221
vn 0.0000 -0.3870 0.9221
vn 0.4516 -0.4294 0.7821
vn 0.4516 -0.4294 0.7821
vn 0.4516 -0.4294 0.7821
vn 0.4516 -0.4294 0.7821
vn 0.7986 -0.3870 0.4610
vn 0.7986 -0.3870 0.4610
vn 0.7986 -0.3870 0.4610
vn 0.7986 -0.3870 0.4610
vn 0.9031 -0.4294 0.0000
vn 0.9031 -0.4294 0.0000
vn 0.9031 -0.4294 0.0000
vn 0.9031 -0.4294 0.0000
vn 0.7985 -0.3870 -0.4610
vn 0.7985 -0.3870 -0.4610
vn 0.7985 -0.3870 -0.4610
vn 0.7985 -0.3870 -0.4610
vn 0.4516 -0.4294 -0.7821
vn 0.4516 -0.4294 -0.7821
vn 0.4516 -0.4294 -0.7821
vn 0.4516 -0.4294 -0.7821
vn -0.0000 0.3870 -0.9221
vn -0.0000 0.3870 -0.9221
vn -0.0000 0.3870 -0.9221
vn -0.0000 0.3870 -0.9221
vn -0.4516 0.4294 -0.7821
vn -0.4516 0.4294 -0.7821
vn -0.4516 0.4294 -0.7821
vn -0.4516 0.4294 -0.7821
vn -0.7985 0.3870 -0.4610
vn -0.7985 0.3870 -0.4610
vn -0.7985 0.3870 -0.4610
vn -0.7985 0.3870 -0.4610
vn -0.9031 0.4294 -0.0000
vn -0.9031 0.4294 -0.0000
vn -0.9031 0.4294 -0.0000
vn -0.9031 0.4294 -0.0000
vn -0.7985 0.3870 0.4610
vn -0.7985 0.3870 0.4610
vn -0.7985 0.3870 0.4610
vn -0.7985 0.3870 0.4610
vn -0.4516 0.4294 0.7821
vn -0.4516 0.4294 0.7821
vn -0.4516 0.4294 0.7821
vn -0.4516 0.4294 0.7821
vn 0.0000 0.3870 0.9221
vn 0.0000 0.3870 0.9221
vn 0.0000 0.3870 0.9221
vn 0.0000 0.3870 0.9221
vn 0.4516 0.4294 0.7821
vn 0.4516 0.4294 0.7821
vn 0.4516 0.4294 0.7821
vn 0.4516 0.4294 0.7821
vn 0.7986 0.3870 0.4610
vn 0.7986 0.3870 0.4610
vn 0.7986 0.3870 0.4610
vn 0.7986 0.3870 0.4610
vn 0.9031 0.4294 0.0000
vn 0.9031 0.4294 0.0000
vn 0.9031 0.4294 0.0000
vn 0.9031 0.4294 0.0000
vn 0.7985 0.3870 -0.4610
vn 0.7985 0.3870 -0.4610
vn 0.7985 0.3870 -0.4610
vn 0.7985 0.3870 -0.4610
vn 0.4516 0.4294 -0.7821
vn 0.4516 0.4294 -0.7821
vn 0.4516 0.4294 -0.7821
vn 0.4516 0.4294 -0.7821
vn 0.0000 1.0000 -0.0000
vn 0.0000 1.0000 -0.0000
vn 0.0000 1.0000 -0.0000
vn 0.0000 1.0000 -0.0000
vn 0.0000 1.0000 -0.0000
vn 0.0000 1.0000 -0.0000
vn 0.0000 1.0000 -0.0000
vn 0.0000 1.0000 -0.0000
vn 0.0000 1.0000 -0.0000
vn 0.0000 1.0000 -0.0000
vn 0.0000 1.0000 -0.0000
vn 0.0000 1.0000 -0.0000
vn 0.0000 1.0000 -0.0000
vn 0.0000 1.0000 -0.0000
vn 0.0000 1.0000 -0.0000
vn 0.0000 1.0000 -0.0000
vn 0.0000 1.0000 -0.0000
vn 0.0000 1.0000 -0.0000
vn 0.0000 1.0000 -0.0000
vn 0.0000 1.0000 -0.0000
vn 0.0000 1.0000 -0.0000
vn 0.0000 1.0000 -0.0000
vn 0.0000 1.0000 -0.0000
vn 0.0000 1.0000 -0.0000
# 144 vertex normals

vt 0.9238 0.5447 0.0000
vt 0.9252 0.5447 1.0000
vt 0.9257 0.5447 1.0000
vt 0.9261 0.5447 1.0000
vt 0.9210 0.5447 1.0000
vt 0.9215 0.5447 1.0000
vt 0.9219 0.5447 1.0000
vt 0.9224 0.5447 1.0000
vt 0.9229 0.5447 1.0000
vt 0.9233 0.5447 1.0000
vt 0.9238 0.5447 1.0000
vt 0.9243 0.5447 1.0000
vt 0.9247 0.5447 1.0000
vt 0.9252 0.5475 1.0000
vt 0.9257 0.5475 1.0000
vt 0.9261 0.5475 1.0000
vt 0.9210 0.5475 1.0000
vt 0.9215 0.5475 1.0000
vt 0.9219 0.5475 1.0000
vt 0.9224 0.5475 1.0000
vt 0.9229 0.5475 1.0000
vt 0.9233 0.5475 1.0000
vt 0.9238 0.5475 1.0000
vt 0.9243 0.5475 1.0000
vt 0.9247 0.5475 1.0000
vt 0.9252 0.5503 1.0000
vt 0.9257 0.5503 1.0000
vt 0.9261 0.5503 1.0000
vt 0.9210 0.5503 1.0000
vt 0.9215 0.5503 1.0000
vt 0.9219 0.5503 1.0000
vt 0.9224 0.5503 1.0000
vt 0.9229 0.5503 1.0000
vt 0.9233 0.5503 1.0000
vt 0.9238 0.5503 1.0000
vt 0.9243 0.5503 1.0000
vt 0.9247 0.5503 1.0000
vt 0.9238 0.5503 0.0000
vt 0.9205 0.5447 1.0000
vt 0.9205 0.5447 1.0000
vt 0.9205 0.5475 1.0000
vt 0.9205 0.5475 1.0000
vt 0.9205 0.5503 1.0000
vt 0.9205 0.5503 1.0000
vt 0.9206 0.5503 0.9621
# 45 texture coords

g crystal_2
usemtl crystal
s 1
f 1/1/1 4/4/2 3/3/3 2/2/4 
f 1/1/5 6/6/6 5/5/7 4/39/8 
f 1/1/9 8/8/10 7/7/11 6/6/12 
f 1/1/13 10/10/14 9/9/15 8/8/16 
f 1/1/17 12/12/18 11/11/19 10/10/20 
f 1/1/21 2/2/22 13/13/23 12/12/24 
s off
f 2/2/25 3/3/26 15/15/27 14/14/28 
f 3/3/29 4/4/30 16/16/31 15/15/32 
f 4/40/33 5/5/34 17/17/35 16/41/36 
f 5/5/37 6/6/38 18/18/39 17/17/40 
f 6/6/41 7/7/42 19/19/43 18/18/44 
f 7/7/45 8/8/46 20/20/47 19/19/48 
f 8/8/49 9/9/50 21/21/51 20/20/52 
f 9/9/53 10/10/54 22/22/55 21/21/56 
f 10/10/57 11/11/58 23/23/59 22/22/60 
f 11/11/61 12/12/62 24/24/63 23/23/64 
f 12/12/65 13/13/66 25/25/67 24/24/68 
f 13/13/69 2/2/70 14/14/71 25/25/72 
f 14/14/73 15/15/74 27/27/75 26/26/76 
f 15/15/77 16/16/78 28/28/79 27/27/80 
f 16/42/81 17/17/82 29/29/83 28/43/84 
f 17/17/85 18/18/86 30/30/87 29/29/88 
f 18/18/89 19/19/90 31/31/91 30/30/92 
f 19/19/93 20/20/94 32/32/95 31/31/96 
f 20/20/97 21/21/98 33/33/99 32/32/100 
f 21/21/101 22/22/102 34/34/103 33/33/104 
f 22/22/105 23/23/106 35/35/107 34/34/108 
f 23/23/109 24/24/110 36/36/111 35/35/112 
f 24/24/113 25/25/114 37/37/115 36/36/116 
f 25/25/117 14/14/118 26/26/119 37/37/120 
s 1
f 38/38/121 37/37/122 26/26/123 27/27/124 
f 38/38/125 27/45/126 28/44/127 29/29/128 
f 38/38/129 29/29/130 30/30/131 31/31/132 
f 38/38/133 31/31/134 32/32/135 33/33/136 
f 38/38/137 33/33/138 34/34/139 35/35/140 
f 38/38/141 35/35/142 36/36/143 37/37/144 
# 36 polygons

